<?xml version="1.0" standalone="no"?>
<!DOCTYPE svg PUBLIC "-//W3C//DTD SVG 20010904//EN"
 "http://www.w3.org/TR/2001/REC-SVG-20010904/DTD/svg10.dtd">
<svg version="1.0" xmlns="http://www.w3.org/2000/svg"
 width="142.000000pt" height="150.000000pt" viewBox="0 0 142.000000 150.000000"
 preserveAspectRatio="xMidYMid meet">

<g transform="translate(0.000000,150.000000) scale(0.100000,-0.100000)"
stroke="none">
<path d="M570 1484 c-79 -17 -190 -70 -247 -118 -22 -20 -43 -36 -46 -36 -2 0
-32 34 -66 75 l-62 76 -40 -31 -39 -32 63 -76 c35 -43 67 -82 70 -89 4 -6 -4
-31 -18 -55 -14 -23 -35 -72 -47 -108 -20 -60 -22 -89 -26 -387 l-4 -323 -34
0 c-63 0 -95 -59 -54 -100 19 -19 33 -20 240 -20 l220 0 0 -26 c0 -123 106
-234 225 -234 118 0 225 108 225 228 0 31 1 32 44 32 44 0 45 0 136 -110 l91
-111 40 32 39 31 -66 79 -66 79 116 0 c103 0 118 2 136 20 45 45 9 100 -65
100 l-45 0 0 298 c0 332 -7 388 -62 500 -47 98 -161 210 -262 258 -131 62
-259 78 -396 48z m255 -119 c167 -44 303 -190 334 -359 6 -34 11 -183 11 -343
l0 -283 -59 0 -60 0 -333 407 c-183 224 -339 416 -347 427 -13 18 -11 22 26
55 109 97 277 135 428 96z m-259 -552 c147 -181 288 -352 312 -380 l44 -53
-341 0 -342 0 3 333 c3 317 4 334 25 380 12 26 24 47 27 47 2 0 125 -147 272
-327z m241 -595 c-7 -56 -52 -98 -102 -98 -49 0 -93 42 -101 98 l-7 42 108 0
108 0 -6 -42z"/>
</g>
</svg>
